<svg xmlns="http://www.w3.org/2000/svg" viewBox="0 0 300 400" preserveAspectRatio="xMidYMid slice"><defs></defs><rect width="300" height="400" fill="#f2e6c8"/><rect y="300" width="300" height="100" fill="#e3d2a6"/><path d="M0 315Q75 305 150 315T300 315" stroke="#cdb989" fill="none"/><path d="M0 329Q75 319 150 329T300 329" stroke="#cdb989" fill="none"/><path d="M0 343Q75 333 150 343T300 343" stroke="#cdb989" fill="none"/><path d="M0 357Q75 347 150 357T300 357" stroke="#cdb989" fill="none"/><path d="M0 371Q75 361 150 371T300 371" stroke="#cdb989" fill="none"/><path d="M0 385Q75 375 150 385T300 385" stroke="#cdb989" fill="none"/><path d="M95 330h110l-12 40h-86z" fill="#8e6bff"/><rect x="90" y="322" width="120" height="12" rx="5" fill="#a58bff"/><path d="M150 322Q120 270 150 235Q185 200 140 150" stroke="#6b4a2b" stroke-width="14" fill="none" stroke-linecap="round"/><path d="M148 250Q200 230 215 200" stroke="#6b4a2b" stroke-width="8" fill="none" stroke-linecap="round"/><ellipse cx="135" cy="140" rx="49" ry="30" fill="#2f8f4e"/><ellipse cx="95" cy="185" rx="39" ry="24" fill="#1f7a3d"/><ellipse cx="215" cy="195" rx="42" ry="26" fill="#2f8f4e"/><ellipse cx="170" cy="115" rx="36" ry="22" fill="#4cc26a"/><ellipse cx="235" cy="215" rx="29" ry="18" fill="#4cc26a"/><ellipse cx="110" cy="145" rx="29" ry="18" fill="#4cc26a"/><ellipse cx="200" cy="170" rx="29" ry="18" fill="#1f7a3d"/></svg>