<svg xmlns="http://www.w3.org/2000/svg" viewBox="0 0 300 400" preserveAspectRatio="xMidYMid slice"><defs><linearGradient id="s" x1="0" y1="0" x2="0" y2="1"><stop offset="0" stop-color="#9fdcff"/><stop offset="1" stop-color="#eafaff"/></linearGradient></defs><rect width="300" height="400" fill="url(#s)"/><rect y="130" width="300" height="270" fill="#8a5a2b"/><rect x="0" y="170" width="300" height="5" fill="#222"/><ellipse cx="22" cy="155" rx="8" ry="15" fill="#2f8f4e" transform="rotate(-30 22 170)"/><ellipse cx="22" cy="155" rx="8" ry="15" fill="#4cc26a" transform="rotate(30 22 170)"/><ellipse cx="22" cy="152" rx="9" ry="18" fill="#1f7a3d" transform="rotate(0 22 170)"/><path d="M22 175v14" stroke="#222"/><path d="M22 192q-4 7 0 10q4-3 0-10" fill="#19c6c6"/><circle cx="22" cy="206" r="2.5" fill="#6fd8ff"/><ellipse cx="64" cy="155" rx="8" ry="15" fill="#2f8f4e" transform="rotate(-30 64 170)"/><ellipse cx="64" cy="155" rx="8" ry="15" fill="#4cc26a" transform="rotate(30 64 170)"/><ellipse cx="64" cy="152" rx="9" ry="18" fill="#1f7a3d" transform="rotate(0 64 170)"/><path d="M64 175v14" stroke="#222"/><path d="M64 192q-4 7 0 10q4-3 0-10" fill="#19c6c6"/><circle cx="64" cy="206" r="2.5" fill="#6fd8ff"/><ellipse cx="106" cy="155" rx="8" ry="15" fill="#2f8f4e" transform="rotate(-30 106 170)"/><ellipse cx="106" cy="155" rx="8" ry="15" fill="#4cc26a" transform="rotate(30 106 170)"/><ellipse cx="106" cy="152" rx="9" ry="18" fill="#1f7a3d" transform="rotate(0 106 170)"/><path d="M106 175v14" stroke="#222"/><path d="M106 192q-4 7 0 10q4-3 0-10" fill="#19c6c6"/><circle cx="106" cy="206" r="2.5" fill="#6fd8ff"/><ellipse cx="148" cy="155" rx="8" ry="15" fill="#2f8f4e" transform="rotate(-30 148 170)"/><ellipse cx="148" cy="155" rx="8" ry="15" fill="#4cc26a" transform="rotate(30 148 170)"/><ellipse cx="148" cy="152" rx="9" ry="18" fill="#1f7a3d" transform="rotate(0 148 170)"/><path d="M148 175v14" stroke="#222"/><path d="M148 192q-4 7 0 10q4-3 0-10" fill="#19c6c6"/><circle cx="148" cy="206" r="2.5" fill="#6fd8ff"/><ellipse cx="190" cy="155" rx="8" ry="15" fill="#2f8f4e" transform="rotate(-30 190 170)"/><ellipse cx="190" cy="155" rx="8" ry="15" fill="#4cc26a" transform="rotate(30 190 170)"/><ellipse cx="190" cy="152" rx="9" ry="18" fill="#1f7a3d" transform="rotate(0 190 170)"/><path d="M190 175v14" stroke="#222"/><path d="M190 192q-4 7 0 10q4-3 0-10" fill="#19c6c6"/><circle cx="190" cy="206" r="2.5" fill="#6fd8ff"/><ellipse cx="232" cy="155" rx="8" ry="15" fill="#2f8f4e" transform="rotate(-30 232 170)"/><ellipse cx="232" cy="155" rx="8" ry="15" fill="#4cc26a" transform="rotate(30 232 170)"/><ellipse cx="232" cy="152" rx="9" ry="18" fill="#1f7a3d" transform="rotate(0 232 170)"/><path d="M232 175v14" stroke="#222"/><path d="M232 192q-4 7 0 10q4-3 0-10" fill="#19c6c6"/><circle cx="232" cy="206" r="2.5" fill="#6fd8ff"/><ellipse cx="274" cy="155" rx="8" ry="15" fill="#2f8f4e" transform="rotate(-30 274 170)"/><ellipse cx="274" cy="155" rx="8" ry="15" fill="#4cc26a" transform="rotate(30 274 170)"/><ellipse cx="274" cy="152" rx="9" ry="18" fill="#1f7a3d" transform="rotate(0 274 170)"/><path d="M274 175v14" stroke="#222"/><path d="M274 192q-4 7 0 10q4-3 0-10" fill="#19c6c6"/><circle cx="274" cy="206" r="2.5" fill="#6fd8ff"/><rect x="0" y="225" width="300" height="5" fill="#222"/><ellipse cx="22" cy="210" rx="8" ry="15" fill="#2f8f4e" transform="rotate(-30 22 225)"/><ellipse cx="22" cy="210" rx="8" ry="15" fill="#4cc26a" transform="rotate(30 22 225)"/><ellipse cx="22" cy="207" rx="9" ry="18" fill="#1f7a3d" transform="rotate(0 22 225)"/><path d="M22 230v14" stroke="#222"/><path d="M22 247q-4 7 0 10q4-3 0-10" fill="#19c6c6"/><circle cx="22" cy="261" r="2.5" fill="#6fd8ff"/><ellipse cx="64" cy="210" rx="8" ry="15" fill="#2f8f4e" transform="rotate(-30 64 225)"/><ellipse cx="64" cy="210" rx="8" ry="15" fill="#4cc26a" transform="rotate(30 64 225)"/><ellipse cx="64" cy="207" rx="9" ry="18" fill="#1f7a3d" transform="rotate(0 64 225)"/><path d="M64 230v14" stroke="#222"/><path d="M64 247q-4 7 0 10q4-3 0-10" fill="#19c6c6"/><circle cx="64" cy="261" r="2.5" fill="#6fd8ff"/><ellipse cx="106" cy="210" rx="8" ry="15" fill="#2f8f4e" transform="rotate(-30 106 225)"/><ellipse cx="106" cy="210" rx="8" ry="15" fill="#4cc26a" transform="rotate(30 106 225)"/><ellipse cx="106" cy="207" rx="9" ry="18" fill="#1f7a3d" transform="rotate(0 106 225)"/><path d="M106 230v14" stroke="#222"/><path d="M106 247q-4 7 0 10q4-3 0-10" fill="#19c6c6"/><circle cx="106" cy="261" r="2.5" fill="#6fd8ff"/><ellipse cx="148" cy="210" rx="8" ry="15" fill="#2f8f4e" transform="rotate(-30 148 225)"/><ellipse cx="148" cy="210" rx="8" ry="15" fill="#4cc26a" transform="rotate(30 148 225)"/><ellipse cx="148" cy="207" rx="9" ry="18" fill="#1f7a3d" transform="rotate(0 148 225)"/><path d="M148 230v14" stroke="#222"/><path d="M148 247q-4 7 0 10q4-3 0-10" fill="#19c6c6"/><circle cx="148" cy="261" r="2.5" fill="#6fd8ff"/><ellipse cx="190" cy="210" rx="8" ry="15" fill="#2f8f4e" transform="rotate(-30 190 225)"/><ellipse cx="190" cy="210" rx="8" ry="15" fill="#4cc26a" transform="rotate(30 190 225)"/><ellipse cx="190" cy="207" rx="9" ry="18" fill="#1f7a3d" transform="rotate(0 190 225)"/><path d="M190 230v14" stroke="#222"/><path d="M190 247q-4 7 0 10q4-3 0-10" fill="#19c6c6"/><circle cx="190" cy="261" r="2.5" fill="#6fd8ff"/><ellipse cx="232" cy="210" rx="8" ry="15" fill="#2f8f4e" transform="rotate(-30 232 225)"/><ellipse cx="232" cy="210" rx="8" ry="15" fill="#4cc26a" transform="rotate(30 232 225)"/><ellipse cx="232" cy="207" rx="9" ry="18" fill="#1f7a3d" transform="rotate(0 232 225)"/><path d="M232 230v14" stroke="#222"/><path d="M232 247q-4 7 0 10q4-3 0-10" fill="#19c6c6"/><circle cx="232" cy="261" r="2.5" fill="#6fd8ff"/><ellipse cx="274" cy="210" rx="8" ry="15" fill="#2f8f4e" transform="rotate(-30 274 225)"/><ellipse cx="274" cy="210" rx="8" ry="15" fill="#4cc26a" transform="rotate(30 274 225)"/><ellipse cx="274" cy="207" rx="9" ry="18" fill="#1f7a3d" transform="rotate(0 274 225)"/><path d="M274 230v14" stroke="#222"/><path d="M274 247q-4 7 0 10q4-3 0-10" fill="#19c6c6"/><circle cx="274" cy="261" r="2.5" fill="#6fd8ff"/><rect x="0" y="280" width="300" height="5" fill="#222"/><ellipse cx="22" cy="265" rx="8" ry="15" fill="#2f8f4e" transform="rotate(-30 22 280)"/><ellipse cx="22" cy="265" rx="8" ry="15" fill="#4cc26a" transform="rotate(30 22 280)"/><ellipse cx="22" cy="262" rx="9" ry="18" fill="#1f7a3d" transform="rotate(0 22 280)"/><path d="M22 285v14" stroke="#222"/><path d="M22 302q-4 7 0 10q4-3 0-10" fill="#19c6c6"/><circle cx="22" cy="316" r="2.5" fill="#6fd8ff"/><ellipse cx="64" cy="265" rx="8" ry="15" fill="#2f8f4e" transform="rotate(-30 64 280)"/><ellipse cx="64" cy="265" rx="8" ry="15" fill="#4cc26a" transform="rotate(30 64 280)"/><ellipse cx="64" cy="262" rx="9" ry="18" fill="#1f7a3d" transform="rotate(0 64 280)"/><path d="M64 285v14" stroke="#222"/><path d="M64 302q-4 7 0 10q4-3 0-10" fill="#19c6c6"/><circle cx="64" cy="316" r="2.5" fill="#6fd8ff"/><ellipse cx="106" cy="265" rx="8" ry="15" fill="#2f8f4e" transform="rotate(-30 106 280)"/><ellipse cx="106" cy="265" rx="8" ry="15" fill="#4cc26a" transform="rotate(30 106 280)"/><ellipse cx="106" cy="262" rx="9" ry="18" fill="#1f7a3d" transform="rotate(0 106 280)"/><path d="M106 285v14" stroke="#222"/><path d="M106 302q-4 7 0 10q4-3 0-10" fill="#19c6c6"/><circle cx="106" cy="316" r="2.5" fill="#6fd8ff"/><ellipse cx="148" cy="265" rx="8" ry="15" fill="#2f8f4e" transform="rotate(-30 148 280)"/><ellipse cx="148" cy="265" rx="8" ry="15" fill="#4cc26a" transform="rotate(30 148 280)"/><ellipse cx="148" cy="262" rx="9" ry="18" fill="#1f7a3d" transform="rotate(0 148 280)"/><path d="M148 285v14" stroke="#222"/><path d="M148 302q-4 7 0 10q4-3 0-10" fill="#19c6c6"/><circle cx="148" cy="316" r="2.5" fill="#6fd8ff"/><ellipse cx="190" cy="265" rx="8" ry="15" fill="#2f8f4e" transform="rotate(-30 190 280)"/><ellipse cx="190" cy="265" rx="8" ry="15" fill="#4cc26a" transform="rotate(30 190 280)"/><ellipse cx="190" cy="262" rx="9" ry="18" fill="#1f7a3d" transform="rotate(0 190 280)"/><path d="M190 285v14" stroke="#222"/><path d="M190 302q-4 7 0 10q4-3 0-10" fill="#19c6c6"/><circle cx="190" cy="316" r="2.5" fill="#6fd8ff"/><ellipse cx="232" cy="265" rx="8" ry="15" fill="#2f8f4e" transform="rotate(-30 232 280)"/><ellipse cx="232" cy="265" rx="8" ry="15" fill="#4cc26a" transform="rotate(30 232 280)"/><ellipse cx="232" cy="262" rx="9" ry="18" fill="#1f7a3d" transform="rotate(0 232 280)"/><path d="M232 285v14" stroke="#222"/><path d="M232 302q-4 7 0 10q4-3 0-10" fill="#19c6c6"/><circle cx="232" cy="316" r="2.5" fill="#6fd8ff"/><ellipse cx="274" cy="265" rx="8" ry="15" fill="#2f8f4e" transform="rotate(-30 274 280)"/><ellipse cx="274" cy="265" rx="8" ry="15" fill="#4cc26a" transform="rotate(30 274 280)"/><ellipse cx="274" cy="262" rx="9" ry="18" fill="#1f7a3d" transform="rotate(0 274 280)"/><path d="M274 285v14" stroke="#222"/><path d="M274 302q-4 7 0 10q4-3 0-10" fill="#19c6c6"/><circle cx="274" cy="316" r="2.5" fill="#6fd8ff"/><rect x="0" y="335" width="300" height="5" fill="#222"/><ellipse cx="22" cy="320" rx="8" ry="15" fill="#2f8f4e" transform="rotate(-30 22 335)"/><ellipse cx="22" cy="320" rx="8" ry="15" fill="#4cc26a" transform="rotate(30 22 335)"/><ellipse cx="22" cy="317" rx="9" ry="18" fill="#1f7a3d" transform="rotate(0 22 335)"/><path d="M22 340v14" stroke="#222"/><path d="M22 357q-4 7 0 10q4-3 0-10" fill="#19c6c6"/><circle cx="22" cy="371" r="2.5" fill="#6fd8ff"/><ellipse cx="64" cy="320" rx="8" ry="15" fill="#2f8f4e" transform="rotate(-30 64 335)"/><ellipse cx="64" cy="320" rx="8" ry="15" fill="#4cc26a" transform="rotate(30 64 335)"/><ellipse cx="64" cy="317" rx="9" ry="18" fill="#1f7a3d" transform="rotate(0 64 335)"/><path d="M64 340v14" stroke="#222"/><path d="M64 357q-4 7 0 10q4-3 0-10" fill="#19c6c6"/><circle cx="64" cy="371" r="2.5" fill="#6fd8ff"/><ellipse cx="106" cy="320" rx="8" ry="15" fill="#2f8f4e" transform="rotate(-30 106 335)"/><ellipse cx="106" cy="320" rx="8" ry="15" fill="#4cc26a" transform="rotate(30 106 335)"/><ellipse cx="106" cy="317" rx="9" ry="18" fill="#1f7a3d" transform="rotate(0 106 335)"/><path d="M106 340v14" stroke="#222"/><path d="M106 357q-4 7 0 10q4-3 0-10" fill="#19c6c6"/><circle cx="106" cy="371" r="2.5" fill="#6fd8ff"/><ellipse cx="148" cy="320" rx="8" ry="15" fill="#2f8f4e" transform="rotate(-30 148 335)"/><ellipse cx="148" cy="320" rx="8" ry="15" fill="#4cc26a" transform="rotate(30 148 335)"/><ellipse cx="148" cy="317" rx="9" ry="18" fill="#1f7a3d" transform="rotate(0 148 335)"/><path d="M148 340v14" stroke="#222"/><path d="M148 357q-4 7 0 10q4-3 0-10" fill="#19c6c6"/><circle cx="148" cy="371" r="2.5" fill="#6fd8ff"/><ellipse cx="190" cy="320" rx="8" ry="15" fill="#2f8f4e" transform="rotate(-30 190 335)"/><ellipse cx="190" cy="320" rx="8" ry="15" fill="#4cc26a" transform="rotate(30 190 335)"/><ellipse cx="190" cy="317" rx="9" ry="18" fill="#1f7a3d" transform="rotate(0 190 335)"/><path d="M190 340v14" stroke="#222"/><path d="M190 357q-4 7 0 10q4-3 0-10" fill="#19c6c6"/><circle cx="190" cy="371" r="2.5" fill="#6fd8ff"/><ellipse cx="232" cy="320" rx="8" ry="15" fill="#2f8f4e" transform="rotate(-30 232 335)"/><ellipse cx="232" cy="320" rx="8" ry="15" fill="#4cc26a" transform="rotate(30 232 335)"/><ellipse cx="232" cy="317" rx="9" ry="18" fill="#1f7a3d" transform="rotate(0 232 335)"/><path d="M232 340v14" stroke="#222"/><path d="M232 357q-4 7 0 10q4-3 0-10" fill="#19c6c6"/><circle cx="232" cy="371" r="2.5" fill="#6fd8ff"/><ellipse cx="274" cy="320" rx="8" ry="15" fill="#2f8f4e" transform="rotate(-30 274 335)"/><ellipse cx="274" cy="320" rx="8" ry="15" fill="#4cc26a" transform="rotate(30 274 335)"/><ellipse cx="274" cy="317" rx="9" ry="18" fill="#1f7a3d" transform="rotate(0 274 335)"/><path d="M274 340v14" stroke="#222"/><path d="M274 357q-4 7 0 10q4-3 0-10" fill="#19c6c6"/><circle cx="274" cy="371" r="2.5" fill="#6fd8ff"/><rect x="0" y="390" width="300" height="5" fill="#222"/><ellipse cx="22" cy="375" rx="8" ry="15" fill="#2f8f4e" transform="rotate(-30 22 390)"/><ellipse cx="22" cy="375" rx="8" ry="15" fill="#4cc26a" transform="rotate(30 22 390)"/><ellipse cx="22" cy="372" rx="9" ry="18" fill="#1f7a3d" transform="rotate(0 22 390)"/><path d="M22 395v14" stroke="#222"/><path d="M22 412q-4 7 0 10q4-3 0-10" fill="#19c6c6"/><circle cx="22" cy="426" r="2.5" fill="#6fd8ff"/><ellipse cx="64" cy="375" rx="8" ry="15" fill="#2f8f4e" transform="rotate(-30 64 390)"/><ellipse cx="64" cy="375" rx="8" ry="15" fill="#4cc26a" transform="rotate(30 64 390)"/><ellipse cx="64" cy="372" rx="9" ry="18" fill="#1f7a3d" transform="rotate(0 64 390)"/><path d="M64 395v14" stroke="#222"/><path d="M64 412q-4 7 0 10q4-3 0-10" fill="#19c6c6"/><circle cx="64" cy="426" r="2.5" fill="#6fd8ff"/><ellipse cx="106" cy="375" rx="8" ry="15" fill="#2f8f4e" transform="rotate(-30 106 390)"/><ellipse cx="106" cy="375" rx="8" ry="15" fill="#4cc26a" transform="rotate(30 106 390)"/><ellipse cx="106" cy="372" rx="9" ry="18" fill="#1f7a3d" transform="rotate(0 106 390)"/><path d="M106 395v14" stroke="#222"/><path d="M106 412q-4 7 0 10q4-3 0-10" fill="#19c6c6"/><circle cx="106" cy="426" r="2.5" fill="#6fd8ff"/><ellipse cx="148" cy="375" rx="8" ry="15" fill="#2f8f4e" transform="rotate(-30 148 390)"/><ellipse cx="148" cy="375" rx="8" ry="15" fill="#4cc26a" transform="rotate(30 148 390)"/><ellipse cx="148" cy="372" rx="9" ry="18" fill="#1f7a3d" transform="rotate(0 148 390)"/><path d="M148 395v14" stroke="#222"/><path d="M148 412q-4 7 0 10q4-3 0-10" fill="#19c6c6"/><circle cx="148" cy="426" r="2.5" fill="#6fd8ff"/><ellipse cx="190" cy="375" rx="8" ry="15" fill="#2f8f4e" transform="rotate(-30 190 390)"/><ellipse cx="190" cy="375" rx="8" ry="15" fill="#4cc26a" transform="rotate(30 190 390)"/><ellipse cx="190" cy="372" rx="9" ry="18" fill="#1f7a3d" transform="rotate(0 190 390)"/><path d="M190 395v14" stroke="#222"/><path d="M190 412q-4 7 0 10q4-3 0-10" fill="#19c6c6"/><circle cx="190" cy="426" r="2.5" fill="#6fd8ff"/><ellipse cx="232" cy="375" rx="8" ry="15" fill="#2f8f4e" transform="rotate(-30 232 390)"/><ellipse cx="232" cy="375" rx="8" ry="15" fill="#4cc26a" transform="rotate(30 232 390)"/><ellipse cx="232" cy="372" rx="9" ry="18" fill="#1f7a3d" transform="rotate(0 232 390)"/><path d="M232 395v14" stroke="#222"/><path d="M232 412q-4 7 0 10q4-3 0-10" fill="#19c6c6"/><circle cx="232" cy="426" r="2.5" fill="#6fd8ff"/><ellipse cx="274" cy="375" rx="8" ry="15" fill="#2f8f4e" transform="rotate(-30 274 390)"/><ellipse cx="274" cy="375" rx="8" ry="15" fill="#4cc26a" transform="rotate(30 274 390)"/><ellipse cx="274" cy="372" rx="9" ry="18" fill="#1f7a3d" transform="rotate(0 274 390)"/><path d="M274 395v14" stroke="#222"/><path d="M274 412q-4 7 0 10q4-3 0-10" fill="#19c6c6"/><circle cx="274" cy="426" r="2.5" fill="#6fd8ff"/><circle cx="240" cy="60" r="34" fill="#ffe08a"/><path d="M0 130h300" stroke="#2f8f4e" stroke-width="10"/></svg>